<svg width="18" height="14" viewBox="0 0 18 14" fill="none" xmlns="http://www.w3.org/2000/svg">
<path d="M6.91667 11.0899L12.75 7.33985L6.91667 3.58985V11.0899ZM2.33334 14.0065C1.87501 14.0065 1.48264 13.8433 1.15626 13.5169C0.829866 13.1905 0.666672 12.7982 0.666672 12.3399V2.33985C0.666672 1.88152 0.829866 1.48916 1.15626 1.16277C1.48264 0.836382 1.87501 0.673187 2.33334 0.673187H15.6667C16.125 0.673187 16.5174 0.836382 16.8438 1.16277C17.1701 1.48916 17.3333 1.88152 17.3333 2.33985V12.3399C17.3333 12.7982 17.1701 13.1905 16.8438 13.5169C16.5174 13.8433 16.125 14.0065 15.6667 14.0065H2.33334ZM2.33334 12.3399H15.6667V2.33985H2.33334V12.3399Z" fill="#004F9D"/>
</svg>
