<svg xmlns="http://www.w3.org/2000/svg" xmlns:xlink="http://www.w3.org/1999/xlink" id="Layer_1" x="0px" y="0px" viewBox="0 0 512 128" style="enable-background:new 0 0 512 128;" xml:space="preserve"><style type="text/css">	.st0{fill:url(#SVGID_1_);}	.st1{fill:#FFFFFF;}	.st2{fill:#1D1D1B;}	.st3{fill:url(#SVGID_00000176728846827937931380000003556947131418700474_);}	.st4{fill:url(#SVGID_00000035532836318871275580000013667336329343946169_);}</style><g>	<linearGradient id="SVGID_1_" gradientUnits="userSpaceOnUse" x1="8.855" y1="31.1094" x2="78.7373" y2="108.4035">		<stop offset="0" style="stop-color:#60DF54"></stop>		<stop offset="1" style="stop-color:#08C972"></stop>	</linearGradient>	<path class="st0" d="M78.7,110.5H8.1c-3.2,0-5.8-2.6-5.8-5.8V34c0-3.2,2.6-5.8,5.8-5.8h70.6c3.2,0,5.8,2.6,5.8,5.8v70.6   C84.5,107.9,81.9,110.5,78.7,110.5z"></path>	<g>		<path class="st1" d="M19,89.1l0-33.5c0-0.9,0.7-1.6,1.6-1.6h6.6c0.9,0,1.6,0.7,1.6,1.6v23.7c0,0.9,0.7,1.6,1.6,1.6h6.6    c0.9,0,1.6-0.7,1.6-1.6v-2.1v-9.8v-9.8v-8.2c0-0.9,0.7-1.6,1.6-1.6h8.2h8.2c0.9,0,1.6,0.7,1.6,1.6v8.2h-8.2    c-0.9,0-1.6,0.7-1.6,1.6v6.6c0,0.9,0.7,1.6,1.6,1.6h6.6c0.9,0,1.6-0.7,1.6-1.6v-8.2h8.2c0.9,0,1.6,0.7,1.6,1.6v16.4    c0,0.9-0.7,1.6-1.6,1.6h-5.8H58h-8.2c-0.9,0-1.6,0.7-1.6,1.6v10.3c0,0.9-0.7,1.6-1.6,1.6H20.5C19.7,90.7,19,90,19,89.1z"></path>		<g>			<rect x="61.2" y="45.7" class="st1" width="2.2" height="2.2"></rect>			<rect x="65" y="49.9" class="st1" width="1.5" height="1.5"></rect>			<rect x="65.7" y="45.7" class="st1" width="1.1" height="1.1"></rect>			<rect x="69.8" y="50.3" class="st1" width="1.1" height="1.1"></rect>			<rect x="67.4" y="43.2" class="st1" width="0.6" height="0.6"></rect>			<rect x="70.4" y="42.8" class="st1" width="0.5" height="0.5"></rect>			<rect x="68.9" y="45.9" class="st1" width="0.6" height="0.6"></rect>			<rect x="61.4" y="52" class="st1" width="1.2" height="1.2"></rect>			<rect x="67.2" y="53.4" class="st1" width="0.9" height="0.9"></rect>		</g>	</g></g><path class="st2" d="M102.4,77.8V51.1h9V77c0,3,1.4,5.5,6.2,5.5c4.8,0,6.2-2.5,6.2-5.5V51.1h9v26.6c0,8.4-6.5,13.5-15.2,13.5  S102.4,86.2,102.4,77.8z"></path><path class="st2" d="M162.3,81.8v8.7h-23V51.1h9v30.7H162.3z"></path><path class="st2" d="M188.7,59.8h-10.1v30.7h-9V59.8h-10.1v-8.7h29.2V59.8z"></path><path class="st2" d="M201.6,51.1v39.3h-9V51.1H201.6z"></path><path class="st2" d="M247.6,90.5h-9V67.6l-10.2,16.7h-1l-10.2-16.7v22.9h-9V51.1h9L228,68.6l10.7-17.5h9V90.5z"></path><path class="st2" d="M277.4,84.3h-14.6l-2,6.2H251l13.4-39.3h11.5l13.4,39.3h-9.8L277.4,84.3z M274.7,75.8l-4.6-14.4l-4.6,14.4  H274.7z"></path><path class="st2" d="M316.1,59.8H306v30.7h-9V59.8h-10.1v-8.7h29.2V59.8z"></path><path class="st2" d="M401.5,64.6c0,7.5-6,13.5-13.8,13.5h-5.9v12.4h-9V51.1h14.9C395.5,51.1,401.5,57.1,401.5,64.6z M392.5,64.6  c0-2.9-2-5.1-4.8-5.1h-5.9v10.1h5.9C390.5,69.7,392.5,67.5,392.5,64.6z"></path><path class="st2" d="M404,70.8c0-11.6,9.2-20.5,20.5-20.5s20.5,8.9,20.5,20.5s-9.2,20.5-20.5,20.5S404,82.4,404,70.8z M435.9,70.8  c0-7-5.1-11.7-11.5-11.7c-6.4,0-11.5,4.7-11.5,11.7s5.1,11.7,11.5,11.7C430.9,82.5,435.9,77.8,435.9,70.8z"></path><path class="st2" d="M446.6,81.5l7.8-4.5c1.4,3.3,3.8,5.5,8.3,5.5c4.3,0,5.3-1.7,5.3-3.2c0-2.4-2.2-3.4-8.2-5  c-5.8-1.6-11.6-4.4-11.6-12c0-7.6,6.4-12,13.2-12c6.5,0,11.5,3.1,14.4,8.9l-7.6,4.4c-1.4-2.8-3.2-4.6-6.8-4.6c-2.8,0-4.2,1.4-4.2,3  c0,1.8,1,3,7.1,4.9c6,1.8,12.6,3.9,12.6,12.2c0,7.6-6.1,12.1-14.6,12.1C454.1,91.3,448.8,87.3,446.6,81.5z"></path><path class="st2" d="M506.4,59.8h-10.1v30.7h-9V59.8h-10.1v-8.7h29.2V59.8z"></path><linearGradient id="SVGID_00000038371659367973393450000018356430603073499547_" gradientUnits="userSpaceOnUse" x1="320.23" y1="55.6312" x2="350.1259" y2="55.6312">	<stop offset="0" style="stop-color:#60DF54"></stop>	<stop offset="1" style="stop-color:#08C972"></stop></linearGradient><rect x="320.2" y="51.2" style="fill:url(#SVGID_00000038371659367973393450000018356430603073499547_);" width="29.9" height="8.8"></rect><rect x="320.2" y="66.4" class="st2" width="29.9" height="8.8"></rect><rect x="320.2" y="81.6" class="st2" width="29.9" height="8.8"></rect><rect x="312.6" y="74" transform="matrix(6.123234e-17 -1 1 6.123234e-17 246.2573 403.0006)" class="st2" width="24" height="8.8"></rect><g>			<linearGradient id="SVGID_00000182519685776526445710000003822271131876464315_" gradientUnits="userSpaceOnUse" x1="460.9885" y1="30.8499" x2="506.4216" y2="30.8499">		<stop offset="0" style="stop-color:#60DF54"></stop>		<stop offset="1" style="stop-color:#08C972"></stop>	</linearGradient>	<path style="fill:url(#SVGID_00000182519685776526445710000003822271131876464315_);" d="M504.1,44.5h-40.8c-1.3,0-2.3-1-2.3-2.3   V19.5c0-1.3,1-2.3,2.3-2.3h40.8c1.3,0,2.3,1,2.3,2.3v22.7C506.4,43.5,505.4,44.5,504.1,44.5z"></path>	<g>		<path class="st1" d="M479.7,38.8h-4.1l-5.1-7.3v7.3h-3.6V22.9h3.6v6.9l4.9-6.9h4.1l-5.4,7.7L479.7,38.8z"></path>		<path class="st1" d="M482.4,22.9h3.6v15.9h-3.6V22.9z"></path>		<path class="st1" d="M500.8,22.9v3.5h-4.1v12.4h-3.6V26.4H489v-3.5H500.8z"></path>	</g></g></svg>